<svg xmlns="http://www.w3.org/2000/svg" version="1.1" xmlns:xlink="http://www.w3.org/1999/xlink" xmlns:svgjs="http://svgjs.dev/svgjs" width="2000" height="1303" viewBox="0 0 2000 1303"><g transform="matrix(1,0,0,1,-1.2121212121212466,0.4773742174468225)"><svg viewBox="0 0 396 258" data-background-color="#ffffff" preserveAspectRatio="xMidYMid meet" height="1303" width="2000" xmlns="http://www.w3.org/2000/svg" xmlns:xlink="http://www.w3.org/1999/xlink"><g id="tight-bounds" transform="matrix(1,0,0,1,0.2400000000000091,-0.09452229324733707)"><svg viewBox="0 0 395.52 258.1890445864947" height="258.1890445864947" width="395.52"><g><svg viewBox="0 0 395.52 258.1890445864947" height="258.1890445864947" width="395.52"><g transform="matrix(1,0,0,1,0,160.04190935082266)"><svg viewBox="0 0 395.52 98.14713523567204" height="98.14713523567204" width="395.52"><g id="textblocktransform"><svg viewBox="0 0 395.52 98.14713523567204" height="98.14713523567204" width="395.52" id="textblock"><g><svg viewBox="0 0 395.52 78.62118774186132" height="78.62118774186132" width="395.52"><g transform="matrix(1,0,0,1,0,0)"><svg width="395.52" viewBox="-2.701319999999999 -37.7418 284.08088788199393 56.46939999999999" height="78.62118774186132" data-palette-color="#ffffff"><path d="M16.026 10.279l-4.554 0.776-14.173-32.784 4.367-0.744 6.484 15.835 5.021 12.311 0.099-0.017 1.002-13.338 1.51-17.199 4.702-0.802 6.977 15.752 5.358 12.203 0.148-0.026 0.764-13.247 1.066-17.123 4.21-0.717-2.94 35.702-4.555 0.777-7.364-16.294-5.284-12.013-0.099 0.017-1.093 13.1zM59.059 4.269v0c-2.303 0.28-4.375-0.029-6.217-0.927-1.848-0.89-3.369-2.273-4.565-4.149-1.195-1.876-1.957-4.164-2.285-6.864v0c-0.328-2.693-0.136-5.094 0.575-7.202 0.711-2.108 1.856-3.815 3.436-5.123 1.573-1.313 3.511-2.109 5.814-2.389v0c2.27-0.276 4.294 0.022 6.073 0.893 1.771 0.866 3.214 2.185 4.329 3.957 1.121 1.764 1.828 3.847 2.12 6.249v0l0.228 1.877-18.315 2.227 0.144 1.181c0.268 2.204 1.159 3.956 2.674 5.256 1.509 1.307 3.448 1.817 5.817 1.529v0c1.615-0.196 2.975-0.748 4.08-1.655 1.106-0.9 1.904-2.099 2.393-3.595v0l3.056 1.683c-0.612 1.814-1.726 3.37-3.341 4.668-1.609 1.297-3.614 2.092-6.016 2.384zM49.85-10.488l0.041 0.338 14.066-1.711-0.065-0.536c-0.184-1.516-0.622-2.799-1.314-3.849-0.699-1.05-1.595-1.824-2.69-2.323-1.096-0.505-2.318-0.675-3.669-0.51v0c-1.416 0.172-2.633 0.656-3.651 1.451-1.026 0.79-1.778 1.805-2.259 3.045-0.486 1.248-0.639 2.613-0.459 4.095zM82.637 1.895v0c-2.711 0.225-4.874-0.294-6.492-1.558-1.617-1.264-2.524-3.085-2.721-5.463v0c-0.135-1.621 0.148-3.016 0.846-4.185 0.698-1.175 1.828-2.119 3.388-2.83 1.553-0.711 3.565-1.169 6.037-1.374v0l5.062-0.421-0.209-2.521c-0.151-1.82-0.765-3.168-1.841-4.042-1.069-0.874-2.627-1.227-4.673-1.056v0c-1.521 0.126-2.782 0.579-3.781 1.357-0.998 0.785-1.795 1.785-2.39 2.998v0l-2.567-2.034c0.585-1.413 1.594-2.678 3.026-3.794 1.439-1.116 3.315-1.77 5.627-1.962v0c3.069-0.255 5.534 0.306 7.395 1.684 1.86 1.371 2.902 3.411 3.127 6.122v0l1.169 14.071 2.93-0.243 0.288 3.468-2.232 0.185c-1.422 0.118-2.492-0.158-3.21-0.827-0.725-0.676-1.217-1.568-1.477-2.677v0l-0.074-0.295-0.239 0.02c-0.402 1.599-1.221 2.858-2.456 3.777-1.242 0.919-2.753 1.453-4.533 1.6zM82.995-1.526v0c1.322-0.11 2.471-0.416 3.446-0.919 0.976-0.496 1.723-1.123 2.241-1.882 0.52-0.752 0.743-1.56 0.672-2.423v0l-0.349-4.206-5.252 0.436c-2.246 0.187-3.873 0.653-4.881 1.399-1.001 0.752-1.45 1.753-1.346 3.002v0l0.087 1.046c0.104 1.256 0.65 2.19 1.637 2.804 0.981 0.621 2.23 0.868 3.745 0.743zM112.743-0.69l-4.963 0.259c-1.351 0.071-2.414-0.271-3.188-1.024-0.767-0.761-1.183-1.754-1.247-2.979v0l-0.938-17.916-4.224 0.221-0.182-3.475 2.387-0.125c0.859-0.045 1.435-0.252 1.73-0.621 0.301-0.363 0.43-0.974 0.385-1.833v0l-0.25-4.763 3.565-0.187 0.372 7.101 5.612-0.294 0.182 3.475-5.612 0.294 0.977 18.664 5.212-0.273zM123.163-0.962l-3.969 0.094-0.872-36.78 3.969-0.094 0.363 15.306 0.2-0.005c0.599-1.468 1.458-2.649 2.577-3.542 1.126-0.887 2.649-1.353 4.568-1.399v0c2.653-0.063 4.769 0.74 6.349 2.411 1.58 1.67 2.407 4.061 2.48 7.173v0l0.391 16.455-3.979 0.094-0.374-15.755c-0.054-2.286-0.582-3.997-1.582-5.134-1.007-1.136-2.471-1.682-4.39-1.636v0c-1.06 0.025-2.069 0.222-3.027 0.592-0.952 0.369-1.715 0.928-2.291 1.674-0.583 0.741-0.861 1.658-0.835 2.751v0zM156.528-0.434v0c-2.32-0.04-4.33-0.632-6.03-1.775-1.707-1.136-3.023-2.716-3.948-4.739-0.925-2.023-1.364-4.394-1.317-7.114v0c0.047-2.713 0.568-5.064 1.563-7.054 0.995-1.99 2.365-3.523 4.11-4.599 1.739-1.083 3.768-1.605 6.088-1.565v0c2.286 0.04 4.25 0.614 5.891 1.723 1.634 1.102 2.882 2.607 3.742 4.515 0.867 1.902 1.28 4.063 1.238 6.483v0l-0.033 1.889-18.447-0.32-0.021 1.19c-0.039 2.22 0.603 4.078 1.924 5.574 1.314 1.503 3.164 2.275 5.551 2.317v0c1.626 0.028 3.05-0.33 4.269-1.076 1.22-0.739 2.175-1.816 2.866-3.231v0l2.795 2.089c-0.856 1.712-2.174 3.099-3.953 4.162-1.772 1.063-3.868 1.573-6.288 1.531zM149.443-16.319l-0.006 0.34 14.168 0.246 0.009-0.54c0.026-1.526-0.23-2.858-0.771-3.994-0.547-1.136-1.328-2.027-2.344-2.671-1.016-0.651-2.203-0.988-3.563-1.012v0c-1.426-0.025-2.699 0.287-3.816 0.934-1.125 0.641-2.01 1.542-2.658 2.704-0.654 1.169-0.994 2.5-1.019 3.993zM177.745-0.326l-3.965-0.194 1.249-25.619 3.965 0.193-0.229 4.715 0.249 0.012c0.34-0.811 0.84-1.558 1.501-2.24 0.667-0.682 1.508-1.221 2.522-1.619 1.014-0.398 2.217-0.563 3.608-0.495v0l1.539 0.075-0.194 3.966-2.337-0.114c-1.418-0.069-2.653 0.064-3.704 0.4-1.044 0.33-1.854 0.794-2.431 1.393-0.577 0.606-0.885 1.322-0.925 2.147v0zM209.538 2.683v0c-2.707-0.264-4.743-1.162-6.108-2.696-1.364-1.533-1.931-3.487-1.699-5.862v0c0.158-1.619 0.685-2.941 1.582-3.965 0.898-1.031 2.177-1.757 3.84-2.178 1.655-0.421 3.717-0.512 6.185-0.271v0l5.056 0.493 0.246-2.518c0.177-1.818-0.185-3.253-1.088-4.306-0.896-1.052-2.365-1.677-4.408-1.877v0c-1.519-0.148-2.84 0.071-3.963 0.659-1.123 0.594-2.086 1.434-2.888 2.522v0l-2.162-2.462c0.829-1.286 2.048-2.349 3.657-3.19 1.616-0.841 3.578-1.148 5.887-0.923v0c3.065 0.299 5.39 1.292 6.974 2.98 1.584 1.682 2.245 3.876 1.981 6.584v0l-1.37 14.053 2.926 0.285-0.338 3.464-2.229-0.217c-1.42-0.138-2.423-0.601-3.01-1.389-0.592-0.795-0.917-1.761-0.973-2.898v0l-0.021-0.304-0.239-0.023c-0.682 1.501-1.713 2.593-3.092 3.276-1.386 0.682-2.968 0.936-4.746 0.763zM210.503-0.619v0c1.32 0.129 2.505 0.033 3.554-0.287 1.049-0.313 1.896-0.796 2.543-1.45 0.646-0.647 1.011-1.402 1.095-2.264v0l0.409-4.2-5.245-0.512c-2.243-0.219-3.927-0.051-5.053 0.502-1.12 0.561-1.74 1.465-1.862 2.713v0l-0.101 1.045c-0.122 1.254 0.247 2.271 1.109 3.052 0.854 0.787 2.038 1.254 3.551 1.401zM231.612 14.57l-3.935-0.528 4.738-35.273 3.935 0.528-0.555 4.133 0.198 0.027c0.876-1.517 2.007-2.576 3.393-3.177 1.379-0.602 2.941-0.785 4.685-0.551v0c2.134 0.287 3.902 1.076 5.302 2.367 1.394 1.29 2.377 2.986 2.949 5.088 0.572 2.102 0.675 4.513 0.31 7.235v0c-0.362 2.696-1.097 4.988-2.205 6.878-1.109 1.896-2.506 3.282-4.191 4.159-1.692 0.876-3.605 1.171-5.739 0.884v0c-1.744-0.234-3.178-0.83-4.3-1.788-1.123-0.951-1.959-2.268-2.507-3.949v0l-0.198-0.027zM239.893 2.647v0c2.233 0.3 4.082-0.165 5.545-1.394 1.469-1.222 2.356-2.966 2.66-5.233v0l0.582-4.331c0.304-2.266-0.09-4.186-1.184-5.759-1.088-1.565-2.749-2.498-4.982-2.798v0c-1.183-0.159-2.305-0.091-3.367 0.204-1.061 0.288-1.935 0.756-2.62 1.403-0.691 0.64-1.101 1.436-1.229 2.388v0l-1.271 9.465c-0.146 1.084 0.027 2.052 0.518 2.905 0.485 0.845 1.202 1.544 2.15 2.095 0.949 0.545 2.015 0.896 3.198 1.055zM259.218 18.728l-3.91-0.686 6.148-35.055 3.91 0.686-0.72 4.107 0.197 0.034c0.936-1.48 2.109-2.493 3.517-3.038 1.402-0.546 2.97-0.667 4.704-0.362v0c2.121 0.372 3.855 1.231 5.203 2.577 1.341 1.345 2.255 3.079 2.742 5.202 0.487 2.123 0.494 4.537 0.019 7.242v0c-0.47 2.679-1.296 4.94-2.479 6.784-1.184 1.85-2.635 3.179-4.354 3.988-1.725 0.807-3.649 1.025-5.77 0.653v0c-1.734-0.304-3.142-0.957-4.225-1.959-1.084-0.996-1.866-2.344-2.346-4.047v0l-0.197-0.034zM267.97 7.145v0c2.219 0.389 4.085-0.001 5.597-1.17 1.517-1.162 2.473-2.869 2.868-5.122v0l0.754-4.304c0.395-2.252 0.078-4.186-0.952-5.802-1.024-1.608-2.646-2.606-4.865-2.996v0c-1.175-0.206-2.3-0.183-3.373 0.069-1.072 0.245-1.963 0.678-2.674 1.297-0.717 0.612-1.158 1.391-1.324 2.337v0l-1.649 9.406c-0.189 1.077-0.055 2.051 0.401 2.924 0.451 0.864 1.139 1.591 2.064 2.179 0.927 0.582 1.978 0.976 3.153 1.182z" opacity="1" transform="matrix(1,0,0,1,0,0)" fill="#ffffff" class="wordmark-text-0" data-fill-palette-color="primary" id="text-0"></path></svg></g></svg></g><g transform="matrix(1,0,0,1,110.35007999999998,85.16490142351734)"><svg viewBox="0 0 174.81984000000003 12.982233812154698" height="12.982233812154698" width="174.81984000000003"><g transform="matrix(1,0,0,1,0,0)"><svg width="174.81984000000003" viewBox="1.73 -34.02 461.51 34.27" height="12.982233812154698" data-palette-color="#ffffff"><path d="M16.15 0.25L16.15 0.25Q23.6 0.25 27.1-3.86 30.6-7.98 30.6-16.88L30.6-16.88Q30.6-25.78 27.1-29.9 23.6-34.02 16.15-34.02L16.15-34.02Q8.68-34.02 5.2-29.91 1.73-25.8 1.73-16.88L1.73-16.88Q1.73-7.98 5.21-3.86 8.7 0.25 16.15 0.25ZM16.15-3.3L16.15-3.3Q12.03-3.3 9.43-5.98 6.83-8.65 6.83-16.88L6.83-16.88Q6.83-25.15 9.43-27.81 12.03-30.48 16.15-30.48L16.15-30.48Q20.3-30.48 22.9-27.81 25.5-25.15 25.5-16.88L25.5-16.88Q25.5-8.65 22.9-5.98 20.3-3.3 16.15-3.3ZM34.85-33.75L34.85 0 39.95 0 39.95-9.85 49.82-9.85Q55.42-9.85 57.36-13.26 59.3-16.68 59.3-21.83L59.3-21.83Q59.3-26.95 57.36-30.35 55.42-33.75 49.82-33.75L49.82-33.75 34.85-33.75ZM48.27-13.4L39.95-13.4 39.95-30.2 48.27-30.2Q51.57-30.2 52.9-28.04 54.22-25.88 54.22-21.8L54.22-21.8Q54.22-17.73 52.9-15.56 51.57-13.4 48.27-13.4L48.27-13.4ZM63.59-33.75L63.59 0 85.97 0 85.97-3.55 68.72-3.55 68.72-15.58 84.92-15.58 84.92-18.95 68.72-18.95 68.72-30.2 85.97-30.2 85.97-33.75 63.59-33.75ZM90.77-33.75L90.77 0 95.84 0 95.84-30.05 95.94-30.05 111.62 0 119.72 0 119.72-33.75 114.62-33.75 114.59-3.95 114.52-3.95 98.92-33.75 90.77-33.75ZM137.01-33.75L143.59 0 151.41 0 157.96-30.2 158.04-30.2 164.59 0 172.41 0 179.11-33.75 173.59-33.75 168.26-3.8 168.19-3.8 161.41-33.75 154.61-33.75 147.84-3.8 147.76-3.8 142.51-33.75 137.01-33.75ZM183.16-33.75L183.16 0 205.54 0 205.54-3.55 188.29-3.55 188.29-15.58 204.49-15.58 204.49-18.95 188.29-18.95 188.29-30.2 205.54-30.2 205.54-33.75 183.16-33.75ZM220.13-33.83L208.83 0 214.11 0 217.08-9.38 230.51-9.38 233.46 0 238.76 0 227.46-33.83 220.13-33.83ZM229.63-12.83L217.98-12.83 223.78-30.78 223.83-30.78 229.63-12.83ZM247.31-30.2L247.31 0 252.43 0 252.43-30.2 262.76-30.2 262.76-33.75 236.96-33.75 236.96-30.2 247.31-30.2ZM266.7-33.75L266.7 0 271.8 0 271.8-15.55 286.95-15.55 286.95 0 292.05 0 292.05-33.75 286.95-33.75 286.95-19.1 271.8-19.1 271.8-33.75 266.7-33.75ZM297.45-33.75L297.45 0 319.83 0 319.83-3.55 302.58-3.55 302.58-15.58 318.78-15.58 318.78-18.95 302.58-18.95 302.58-30.2 319.83-30.2 319.83-33.75 297.45-33.75ZM324.62-33.75L324.62 0 329.72 0 329.72-14.58 340.92-14.58Q345.92-14.58 347.69-17.3 349.45-20.03 349.45-24.05L349.45-24.05Q349.45-28.1 347.74-30.93 346.02-33.75 341.1-33.75L341.1-33.75 324.62-33.75ZM337.5-15.93L344.2 0 349.75 0 342.57-16.25 337.5-15.93ZM339.5-17.78L329.72-17.78 329.72-30.2 339.5-30.2Q342.25-30.2 343.29-28.51 344.32-26.83 344.32-23.98L344.32-23.98Q344.32-21.18 343.3-19.48 342.27-17.78 339.5-17.78L339.5-17.78ZM366.62-33.75L366.62 0 371.64 0 371.64-30.2 371.77-30.2 380.79-1.85 386.89-1.85 395.92-30.2 396.04-30.2 396.04 0 401.07 0 401.07-33.75 392.74-33.75 383.89-5.5 383.79-5.5 374.94-33.75 366.62-33.75ZM416.67-33.83L405.37 0 410.64 0 413.62-9.38 427.04-9.38 429.99 0 435.29 0 423.99-33.83 416.67-33.83ZM426.17-12.83L414.52-12.83 420.32-30.78 420.37-30.78 426.17-12.83ZM438.79-33.75L438.79 0 443.89 0 443.89-9.85 453.76-9.85Q459.36-9.85 461.3-13.26 463.24-16.68 463.24-21.83L463.24-21.83Q463.24-26.95 461.3-30.35 459.36-33.75 453.76-33.75L453.76-33.75 438.79-33.75ZM452.21-13.4L443.89-13.4 443.89-30.2 452.21-30.2Q455.51-30.2 456.84-28.04 458.16-25.88 458.16-21.8L458.16-21.8Q458.16-17.73 456.84-15.56 455.51-13.4 452.21-13.4L452.21-13.4Z" opacity="1" transform="matrix(1,0,0,1,0,0)" fill="#ffffff" class="slogan-text-1" data-fill-palette-color="secondary" id="text-1"></path></svg></g></svg></g></svg></g></svg></g><g transform="matrix(1,0,0,1,75.54432,0)"><svg viewBox="0 0 244.43135999999998 136.3667532505912" height="136.3667532505912" width="244.43135999999998"><g><svg xmlns="http://www.w3.org/2000/svg" xmlns:xlink="http://www.w3.org/1999/xlink" version="1.1" x="0" y="0" viewBox="14.266 30.063000000000002 71.46699999999998 39.870999999999995" enable-background="new 0 0 100 100" xml:space="preserve" height="136.3667532505912" width="244.43135999999998" class="icon-icon-0" data-fill-palette-color="accent" id="icon-0"><g fill="#ffffff" data-fill-palette-color="accent"><path d="M41.475 30.064c-0.028 0-0.056 0.028-0.113 0.028-7.878 0.113-14.265 6.442-14.35 14.298-7.034 0.057-12.746 5.765-12.746 12.772 0 7.064 5.768 12.772 12.858 12.772h45.75c7.092 0 12.859-5.708 12.859-12.772 0-6.979-5.684-12.659-12.719-12.744-2.334-4.917-7.314-8.364-13.139-8.364-2.055 0-3.969 0.508-5.74 1.271-2.533-4.323-7.175-7.262-12.55-7.262C41.559 30.064 41.531 30.064 41.475 30.064L41.475 30.064zM41.587 31.647c0.028 0 0.057 0 0.084 0 5.008 0.028 9.313 2.882 11.452 6.979 0.197 0.367 0.703 0.537 1.07 0.367 1.715-0.848 3.629-1.328 5.684-1.328 5.402 0 10.045 3.25 12.014 7.884 0.113 0.283 0.422 0.48 0.732 0.452 0.225 0 0.309-0.028 0.252-0.028 6.246 0 11.283 5.03 11.283 11.19 0 6.188-5.037 11.189-11.283 11.189h-45.75c-6.246 0-11.283-5.001-11.283-11.189 0-6.16 5.037-11.19 11.283-11.19 0.169 0 0.366 0.057 0.647 0.057 0.422 0.028 0.844-0.367 0.844-0.819-0.028-0.226-0.028-0.452-0.028-0.678C28.588 37.411 34.384 31.647 41.587 31.647L41.587 31.647z" fill="#ffffff" data-fill-palette-color="accent"></path></g></svg></g></svg></g><g></g></svg></g><defs></defs></svg><rect width="395.52" height="258.1890445864947" fill="none" stroke="none" visibility="hidden"></rect></g></svg></g></svg>